# Created by FreeCAD <http://www.freecadweb.org>
v -1.000000 -1.000000 -1.000000
v -1.000000 1.000000 -1.000000
v 1.000000 1.000000 -1.000000
v 1.000000 -1.000000 -1.000000
v -1.000000 -1.000000 1.000000
v 1.000000 -1.000000 1.000000
v 1.000000 1.000000 -1.000000
v 1.000000 -1.000000 -1.000000
vn 0.000000 0.000000 -1.000000
vn 0.000000 0.000000 -1.000000
vn 0.000000 -1.000000 0.000000
vn 0.000000 -1.000000 0.000000
vn 0.000000 0.707107 0.707107
vn -0.000000 0.707107 0.707107
vn -1.000000 0.000000 0.000000
vn 1.000000 0.000000 0.000000
f 1//1 2//1 3//1
f 1//2 3//2 4//2
f 5//3 1//3 4//3
f 5//4 4//4 6//4
f 2//5 5//5 6//5
f 2//6 6//6 3//6
f 5//7 2//7 1//7
f 7//8 6//8 8//8
