solid OpenSCAD_Model
  facet normal 1 0 0
    outer loop
      vertex 1 -0.599999 1
      vertex 1 -1 1
      vertex 1 -0.599999 0.599999
    endloop
  endfacet
  facet normal 1 0 0
    outer loop
      vertex 1 -0.2 0.599999
      vertex 1 -0.599999 0.599999
      vertex 1 -0.2 0.2
    endloop
  endfacet
  facet normal 1 0 0
    outer loop
      vertex 1 0.2 0.2
      vertex 1 -0.2 0.2
      vertex 1 0.2 -0.2
    endloop
  endfacet
  facet normal 1 -0 0
    outer loop
      vertex 1 0.2 -0.2
      vertex 1 0.599999 -0.599999
      vertex 1 0.599999 -0.2
    endloop
  endfacet
  facet normal 1 0 0
    outer loop
      vertex 1 0.599999 -0.599999
      vertex 1 0.2 -0.2
      vertex 1 0.599999 -1
    endloop
  endfacet
  facet normal 1 0 0
    outer loop
      vertex 1 -0.2 0.2
      vertex 1 0.599999 -1
      vertex 1 0.2 -0.2
    endloop
  endfacet
  facet normal 1 0 0
    outer loop
      vertex 1 -1 0.6
      vertex 1 -0.2 0.2
      vertex 1 -0.599999 0.599999
    endloop
  endfacet
  facet normal 1 -0 0
    outer loop
      vertex 1 -1 0.6
      vertex 1 -0.599999 0.599999
      vertex 1 -1 1
    endloop
  endfacet
  facet normal 1 0 0
    outer loop
      vertex 1 -0.2 0.2
      vertex 1 -1 0.6
      vertex 1 0.599999 -1
    endloop
  endfacet
  facet normal 1 -0 0
    outer loop
      vertex 1 0.599999 -0.599999
      vertex 1 1 -1
      vertex 1 1 -0.599999
    endloop
  endfacet
  facet normal 1 0 0
    outer loop
      vertex 1 1 -1
      vertex 1 0.599999 -0.599999
      vertex 1 0.599999 -1
    endloop
  endfacet
  facet normal -0 0 1
    outer loop
      vertex -1 1 -0.599999
      vertex 1 0.599999 -0.599999
      vertex 1 1 -0.599999
    endloop
  endfacet
  facet normal 0 0 1
    outer loop
      vertex 1 0.599999 -0.599999
      vertex -1 1 -0.599999
      vertex -1 0.599999 -0.599999
    endloop
  endfacet
  facet normal 0 0 -1
    outer loop
      vertex -1 0.599999 -1
      vertex 1 1 -1
      vertex 1 0.599999 -1
    endloop
  endfacet
  facet normal -0 0 -1
    outer loop
      vertex 1 1 -1
      vertex -1 0.599999 -1
      vertex -1 1 -1
    endloop
  endfacet
  facet normal -1 0 0
    outer loop
      vertex -1 0.599999 -1
      vertex -1 1 -0.599999
      vertex -1 1 -1
    endloop
  endfacet
  facet normal -1 0 0
    outer loop
      vertex -1 0.599999 -1
      vertex -1 0.599999 -0.599999
      vertex -1 1 -0.599999
    endloop
  endfacet
  facet normal -1 0 0
    outer loop
      vertex -1 0.2 -0.2
      vertex -1 0.599999 -0.599999
      vertex -1 0.599999 -1
    endloop
  endfacet
  facet normal -1 0 0
    outer loop
      vertex -1 0.599999 -0.599999
      vertex -1 0.2 -0.2
      vertex -1 0.599999 -0.2
    endloop
  endfacet
  facet normal -1 0 0
    outer loop
      vertex -1 0.2 -0.2
      vertex -1 -0.2 0.2
      vertex -1 0.2 0.2
    endloop
  endfacet
  facet normal -1 0 0
    outer loop
      vertex -1 0.599999 -1
      vertex -1 -0.2 0.2
      vertex -1 0.2 -0.2
    endloop
  endfacet
  facet normal -1 0 0
    outer loop
      vertex -1 -0.2 0.2
      vertex -1 -0.599999 0.599999
      vertex -1 -0.2 0.599999
    endloop
  endfacet
  facet normal -1 0 0
    outer loop
      vertex -1 -1 0.6
      vertex -1 -0.2 0.2
      vertex -1 0.599999 -1
    endloop
  endfacet
  facet normal -1 0 0
    outer loop
      vertex -1 -0.2 0.2
      vertex -1 -1 0.6
      vertex -1 -0.599999 0.599999
    endloop
  endfacet
  facet normal -1 0 0
    outer loop
      vertex -1 -1 0.6
      vertex -1 -0.599999 1
      vertex -1 -0.599999 0.599999
    endloop
  endfacet
  facet normal -1 -0 0
    outer loop
      vertex -1 -0.599999 1
      vertex -1 -1 0.6
      vertex -1 -1 1
    endloop
  endfacet
  facet normal 0 1 -0
    outer loop
      vertex 1 1 -1
      vertex -1 1 -0.599999
      vertex 1 1 -0.599999
    endloop
  endfacet
  facet normal 0 1 0
    outer loop
      vertex -1 1 -0.599999
      vertex 1 1 -1
      vertex -1 1 -1
    endloop
  endfacet
  facet normal -0 0 1
    outer loop
      vertex -1 0.599999 -0.2
      vertex 1 0.2 -0.2
      vertex 1 0.599999 -0.2
    endloop
  endfacet
  facet normal 0 0 1
    outer loop
      vertex 1 0.2 -0.2
      vertex -1 0.599999 -0.2
      vertex -1 0.2 -0.2
    endloop
  endfacet
  facet normal 0 1 -0
    outer loop
      vertex 1 0.599999 -0.599999
      vertex -1 0.599999 -0.2
      vertex 1 0.599999 -0.2
    endloop
  endfacet
  facet normal 0 1 0
    outer loop
      vertex -1 0.599999 -0.2
      vertex 1 0.599999 -0.599999
      vertex -1 0.599999 -0.599999
    endloop
  endfacet
  facet normal -0 0 1
    outer loop
      vertex -1 0.2 0.2
      vertex 1 -0.2 0.2
      vertex 1 0.2 0.2
    endloop
  endfacet
  facet normal 0 0 1
    outer loop
      vertex 1 -0.2 0.2
      vertex -1 0.2 0.2
      vertex -1 -0.2 0.2
    endloop
  endfacet
  facet normal 0 1 -0
    outer loop
      vertex 1 0.2 -0.2
      vertex -1 0.2 0.2
      vertex 1 0.2 0.2
    endloop
  endfacet
  facet normal 0 1 0
    outer loop
      vertex -1 0.2 0.2
      vertex 1 0.2 -0.2
      vertex -1 0.2 -0.2
    endloop
  endfacet
  facet normal -0 0 1
    outer loop
      vertex -1 -0.2 0.599999
      vertex 1 -0.599999 0.599999
      vertex 1 -0.2 0.599999
    endloop
  endfacet
  facet normal 0 0 1
    outer loop
      vertex 1 -0.599999 0.599999
      vertex -1 -0.2 0.599999
      vertex -1 -0.599999 0.599999
    endloop
  endfacet
  facet normal 0 1 -0
    outer loop
      vertex 1 -0.2 0.2
      vertex -1 -0.2 0.599999
      vertex 1 -0.2 0.599999
    endloop
  endfacet
  facet normal 0 1 0
    outer loop
      vertex -1 -0.2 0.599999
      vertex 1 -0.2 0.2
      vertex -1 -0.2 0.2
    endloop
  endfacet
  facet normal -0 0 1
    outer loop
      vertex -1 -0.599999 1
      vertex 1 -1 1
      vertex 1 -0.599999 1
    endloop
  endfacet
  facet normal 0 0 1
    outer loop
      vertex 1 -1 1
      vertex -1 -0.599999 1
      vertex -1 -1 1
    endloop
  endfacet
  facet normal 0 1 -0
    outer loop
      vertex 1 -0.599999 0.599999
      vertex -1 -0.599999 1
      vertex 1 -0.599999 1
    endloop
  endfacet
  facet normal 0 1 0
    outer loop
      vertex -1 -0.599999 1
      vertex 1 -0.599999 0.599999
      vertex -1 -0.599999 0.599999
    endloop
  endfacet
  facet normal 0 -1 0
    outer loop
      vertex -1 -1 0.6
      vertex 1 -1 1
      vertex -1 -1 1
    endloop
  endfacet
  facet normal 0 -1 -0
    outer loop
      vertex 1 -1 1
      vertex -1 -1 0.6
      vertex 1 -1 0.6
    endloop
  endfacet
  facet normal 0 -0.707107 -0.707107
    outer loop
      vertex -1 0.599999 -1
      vertex 1 -1 0.6
      vertex -1 -1 0.6
    endloop
  endfacet
  facet normal 0 -0.707107 -0.707107
    outer loop
      vertex 1 -1 0.6
      vertex -1 0.599999 -1
      vertex 1 0.599999 -1
    endloop
  endfacet
endsolid OpenSCAD_Model
